<?xml version="1.0" encoding="UTF-8" standalone="no"?>
<!-- Created with Inkscape (http://www.inkscape.org/) -->

<svg
   xmlns:dc="http://purl.org/dc/elements/1.1/"
   xmlns:cc="http://creativecommons.org/ns#"
   xmlns:rdf="http://www.w3.org/1999/02/22-rdf-syntax-ns#"
   xmlns:svg="http://www.w3.org/2000/svg"
   xmlns="http://www.w3.org/2000/svg"
   xmlns:sodipodi="http://sodipodi.sourceforge.net/DTD/sodipodi-0.dtd"
   xmlns:inkscape="http://www.inkscape.org/namespaces/inkscape"
   width="166.40175mm"
   height="269.88965mm"
   viewBox="0 0 166.40175 269.88965"
   version="1.1"
   id="svg8"
   inkscape:version="0.92.2 (5c3e80d, 2017-08-06)"
   sodipodi:docname="error_pic.svg">
  <defs
     id="defs2" />
  <sodipodi:namedview
     id="base"
     pagecolor="#ffffff"
     bordercolor="#666666"
     borderopacity="1.0"
     inkscape:pageopacity="0.0"
     inkscape:pageshadow="2"
     inkscape:zoom="0.7"
     inkscape:cx="397.5422"
     inkscape:cy="412.5819"
     inkscape:document-units="mm"
     inkscape:current-layer="layer1"
     showgrid="false"
     inkscape:snap-others="false"
     inkscape:object-nodes="false"
     inkscape:snap-nodes="false"
     fit-margin-top="0"
     fit-margin-left="0"
     fit-margin-right="0"
     fit-margin-bottom="0" />
  <metadata
     id="metadata5">
    <rdf:RDF>
      <cc:Work
         rdf:about="">
        <dc:format>image/svg+xml</dc:format>
        <dc:type
           rdf:resource="http://purl.org/dc/dcmitype/StillImage" />
        <dc:title></dc:title>
      </cc:Work>
    </rdf:RDF>
  </metadata>
  <g
     inkscape:label="圖層 1"
     inkscape:groupmode="layer"
     id="layer1"
     transform="translate(539.19198,-10.651171)">
    <circle
       style="opacity:1;vector-effect:none;fill:none;fill-opacity:1;fill-rule:nonzero;stroke:#ff6060;stroke-width:3.39199996;stroke-linecap:round;stroke-linejoin:round;stroke-miterlimit:4;stroke-dasharray:none;stroke-dashoffset:0;stroke-opacity:1;paint-order:stroke markers fill"
       id="path1008"
       cx="-477.97458"
       cy="97.951851"
       r="20.312483" />
    <circle
       style="opacity:1;vector-effect:none;fill:none;fill-opacity:1;fill-rule:nonzero;stroke:#ff6060;stroke-width:3.39199996;stroke-linecap:round;stroke-linejoin:round;stroke-miterlimit:4;stroke-dasharray:none;stroke-dashoffset:0;stroke-opacity:1;paint-order:stroke markers fill"
       id="path1008-4"
       cx="-437.34961"
       cy="99.020927"
       r="20.312483" />
    <circle
       style="opacity:1;vector-effect:none;fill:#ff6060;fill-opacity:1;fill-rule:nonzero;stroke:none;stroke-width:3.39199996;stroke-linecap:round;stroke-linejoin:round;stroke-miterlimit:4;stroke-dasharray:none;stroke-dashoffset:0;stroke-opacity:1;paint-order:stroke markers fill"
       id="path1027"
       cx="-479.04364"
       cy="99.020943"
       r="4.2763124" />
    <circle
       style="opacity:1;vector-effect:none;fill:#ff6060;fill-opacity:1;fill-rule:nonzero;stroke:none;stroke-width:3.39199996;stroke-linecap:round;stroke-linejoin:round;stroke-miterlimit:4;stroke-dasharray:none;stroke-dashoffset:0;stroke-opacity:1;paint-order:stroke markers fill"
       id="path1027-1"
       cx="-436.28052"
       cy="100.09"
       r="4.2763124" />
    <path
       style="fill:none;fill-opacity:1;stroke:#ff6060;stroke-width:2;stroke-linecap:round;stroke-linejoin:miter;stroke-miterlimit:4;stroke-dasharray:none;stroke-opacity:1"
       d="m -456.77086,105.74527 c -2.13815,4.27631 -24.47022,23.94911 -18.05574,29.2945 6.41445,5.34539 16.2309,7.11566 21.38155,2.13816 7.83255,-7.56924 -3.83905,-30.52802 -3.83905,-30.52802"
       id="path1050"
       inkscape:connector-curvature="0"
       sodipodi:nodetypes="ccsc" />
    <path
       style="fill:none;stroke:#ff6060;stroke-width:2;stroke-linecap:butt;stroke-linejoin:miter;stroke-miterlimit:4;stroke-dasharray:none;stroke-opacity:1"
       d="m -506.83966,53.050569 c 0,0 -11.75986,98.355191 -2.13815,109.045971 9.6217,10.69078 41.6829,23.20102 66.2717,16.78655 24.5888,-6.41447 50.2578,-108.727271 48.11965,-126.901601 -2.13816,-18.17433 -112.2532,1.06908 -112.2532,1.06908 z"
       id="path1052"
       inkscape:connector-curvature="0"
       sodipodi:nodetypes="csssc" />
    <path
       style="fill:none;stroke:#ff6060;stroke-width:2;stroke-linecap:round;stroke-linejoin:miter;stroke-miterlimit:4;stroke-dasharray:none;stroke-opacity:1"
       d="m -488.18669,168.1422 c -1.87845,-1.87845 25.12502,-12.92047 41.67235,-6.1498"
       id="path1054"
       inkscape:connector-curvature="0"
       sodipodi:nodetypes="cc" />
    <path
       style="fill:none;stroke:#ff6060;stroke-width:4;stroke-linecap:round;stroke-linejoin:miter;stroke-miterlimit:4;stroke-dasharray:none;stroke-opacity:1"
       d="m -511.91778,86.726532 12.56167,8.552627"
       id="path1056"
       inkscape:connector-curvature="0"
       sodipodi:nodetypes="cc" />
    <path
       style="fill:none;stroke:#ff6060;stroke-width:4;stroke-linecap:round;stroke-linejoin:miter;stroke-miterlimit:4;stroke-dasharray:none;stroke-opacity:1"
       d="m -416.76983,99.288199 17.63978,-6.147196"
       id="path1058"
       inkscape:connector-curvature="0"
       sodipodi:nodetypes="cc" />
    <path
       style="fill:none;stroke:#ff6060;stroke-width:2;stroke-linecap:butt;stroke-linejoin:miter;stroke-miterlimit:4;stroke-dasharray:none;stroke-opacity:1"
       d="m -510.58143,89.933767 c -0.21759,0.03627 -11.0076,-1.389641 -12.29442,4.81085 -1.27945,6.164953 -1.51455,14.923153 2.87317,18.441593 2.79746,2.24325 8.08489,3.40769 8.08489,-0.33408 z"
       id="path1060"
       inkscape:connector-curvature="0"
       sodipodi:nodetypes="csscc" />
    <path
       style="fill:#ff6060;fill-opacity:1;stroke:none;stroke-width:0.26458332px;stroke-linecap:butt;stroke-linejoin:miter;stroke-opacity:1"
       d="m -523.41038,16.701929 c 0,0 6.94904,27.79601 16.57072,36.34864 9.6217,8.55263 24.05425,0.53454 24.05425,0.53454 0,0 12.29439,4.81085 20.84703,-0.53454 8.55262,-5.34538 16.5707,3.20724 24.58879,-1.06908 8.01809,-4.2763 22.98518,-7.48355 12.2944,-16.57072 -10.69078,-9.08714 -22.98518,-9.62168 -29.93419,-21.9161 -6.949,-12.2943896 -59.33384,20.31249 -68.421,3.20726 z"
       id="path1062"
       inkscape:connector-curvature="0" />
    <path
       style="fill:#ff6060;fill-opacity:1;stroke:none;stroke-width:0.26458332px;stroke-linecap:butt;stroke-linejoin:miter;stroke-opacity:1"
       d="m -431.73693,49.308801 c 0,0 -2.40542,-19.243402 9.35444,-24.054262 32.33961,-1.603603 29.6526,27.442859 29.13237,41.961318 -27.63983,-29.444724 -38.48681,-17.907056 -38.48681,-17.907056 z"
       id="path1064"
       inkscape:connector-curvature="0"
       sodipodi:nodetypes="cccc" />
    <path
       style="fill:#ff6060;fill-opacity:1;stroke:#ff6060;stroke-width:2;stroke-linecap:butt;stroke-linejoin:miter;stroke-miterlimit:4;stroke-dasharray:none;stroke-opacity:1"
       d="m -483.80951,183.60715 c 0,0 3.77976,12.85118 9.07143,14.36309 5.29166,1.51191 14.36309,-12.09524 14.36309,-12.09524 z"
       id="path1066"
       inkscape:connector-curvature="0" />
    <path
       style="fill:#ff6060;fill-opacity:1;stroke:#ff6060;stroke-width:2;stroke-linecap:butt;stroke-linejoin:miter;stroke-miterlimit:4;stroke-dasharray:none;stroke-opacity:1"
       d="m -476.10368,198.04429 -8.28535,52.91936 9.68852,8.15173 11.02487,-8.15172 -8.81989,-53.72118 z"
       id="path1068"
       inkscape:connector-curvature="0"
       sodipodi:nodetypes="cccccc" />
    <path
       style="fill:none;stroke:#ff6060;stroke-width:2;stroke-linecap:round;stroke-linejoin:round;stroke-miterlimit:4;stroke-dasharray:none;stroke-opacity:1"
       d="m -503.0979,177.59817 9.08717,17.10525 10.20122,-11.09627 z"
       id="path1070"
       inkscape:connector-curvature="0"
       sodipodi:nodetypes="cccc" />
    <path
       style="fill:none;stroke:#ff6060;stroke-width:2;stroke-linecap:round;stroke-linejoin:round;stroke-miterlimit:4;stroke-dasharray:none;stroke-opacity:1"
       d="m -460.37499,185.875 6.45469,12.03565 13.89801,-11.75986 z"
       id="path1072"
       inkscape:connector-curvature="0"
       sodipodi:nodetypes="cccc" />
    <path
       style="fill:none;stroke:#ff6060;stroke-width:2;stroke-linecap:butt;stroke-linejoin:miter;stroke-miterlimit:4;stroke-dasharray:none;stroke-opacity:1"
       d="m -503.0979,177.59817 -33.67595,81.78447"
       id="path1074"
       inkscape:connector-curvature="0" />
    <path
       style="fill:none;stroke:#ff6060;stroke-width:2;stroke-linecap:butt;stroke-linejoin:miter;stroke-miterlimit:4;stroke-dasharray:none;stroke-opacity:1"
       d="m -440.02229,186.15079 25.65788,94.07888"
       id="path1093"
       inkscape:connector-curvature="0" />
    <path
       style="fill:#ffffff;fill-opacity:1;stroke:#ff6060;stroke-width:7.55905533;stroke-linecap:butt;stroke-linejoin:miter;stroke-miterlimit:4;stroke-dasharray:none;stroke-opacity:1"
       d="m 577.70115,489.10664 -97.31791,11.40664 c 1.87587,24.81407 1.30648,58.02241 -5.99414,75.19528 -18.96896,44.61978 -99.57465,87.59613 -99.57465,87.59613 l 32.25391,119.02539 c 0,0 136.53715,-90.49895 162.81054,-169.66338 8.25187,-24.86375 10.43742,-89.68303 7.82225,-123.56006 z"
       id="path1211"
       transform="matrix(0.26458333,0,0,0.26458333,-539.19198,10.651171)"
       inkscape:connector-curvature="0"
       sodipodi:nodetypes="ccsccsc" />
    <rect
       style="opacity:1;vector-effect:none;fill:#ff6060;fill-opacity:1;fill-rule:nonzero;stroke:#ff6060;stroke-width:2.46499991;stroke-linecap:round;stroke-linejoin:round;stroke-miterlimit:4;stroke-dasharray:none;stroke-dashoffset:0;stroke-opacity:1;paint-order:stroke markers fill"
       id="rect1187"
       width="31.75"
       height="4.5357141"
       x="-446.84338"
       y="70.138695" />
    <path
       style="fill:#ffffff;fill-opacity:1;stroke:#ff6060;stroke-width:7.55905533;stroke-linecap:butt;stroke-linejoin:miter;stroke-miterlimit:4;stroke-dasharray:none;stroke-opacity:1"
       d="m 480.58594,183.15234 c -1.57569,-0.0799 -3.1425,0.10879 -4.69532,0.5918 -23.42108,7.28526 24.40527,77.77427 40.4375,100.32422 -13.59291,-17.95612 -53.11141,-64.28596 -101.10742,-67.25 -12.02385,-0.74255 -26.26479,6.06062 -18.18359,26.26367 8.08123,20.20305 100.20897,18.2544 99.58984,109.42383 -0.56201,82.76069 -101.10116,40.28494 -107.52734,72.21484 -7.29686,36.25629 67.03485,22.73636 92.79883,19.17774 1.86157,9.58567 4.014,21.93173 5.70312,35.55078 0.78308,6.31381 1.37278,12.93127 1.87305,19.54883 l 83.17578,-10.39649 c -0.20906,-2.70823 -0.3142,-5.55747 -0.55078,-8.20117 -1.01996,-11.63265 -9.08803,-62.78579 -7.54883,-65.42773 0,0 37.08418,-55.87449 42.70899,-79.54297 5.59173,-23.52938 2.38715,-119.98392 -13.77539,-105.8418 -16.16244,14.14216 -14.94336,84.81641 -14.94336,84.81641 0,0 -12.62719,-134.87711 -44.14649,-124.83594 -16.16931,5.15109 14.02539,107.69531 14.02539,107.69531 0,0 -35.79497,-112.48768 -67.83398,-114.11133 z"
       transform="matrix(0.26458333,0,0,0.26458333,-539.19198,10.651171)"
       id="path1095"
       inkscape:connector-curvature="0"
       sodipodi:nodetypes="cccscsccsccccsccscc" />
    <path
       style="fill:none;stroke:#ff6060;stroke-width:2;stroke-linecap:butt;stroke-linejoin:miter;stroke-miterlimit:4;stroke-dasharray:none;stroke-opacity:1"
       d="m -503.0863,177.65402 -35.15178,42.23884"
       id="path1099"
       inkscape:connector-curvature="0"
       sodipodi:nodetypes="cc" />
    <rect
       style="opacity:1;vector-effect:none;fill:#ff6060;fill-opacity:1;fill-rule:nonzero;stroke:#ff6060;stroke-width:2.46499991;stroke-linecap:round;stroke-linejoin:round;stroke-miterlimit:4;stroke-dasharray:none;stroke-dashoffset:0;stroke-opacity:1;paint-order:stroke markers fill"
       id="rect1185"
       width="30.238094"
       height="4.5357141"
       x="-497.71896"
       y="66.283333" >
       <animate attributeName="y" begin="0" dur="4s" values="66;60;60;60;66" repeatCount="indefinite"></animate>       
       </rect>
    <path
       style="fill:none;stroke:#ff6060;stroke-width:2;stroke-linecap:butt;stroke-linejoin:miter;stroke-miterlimit:4;stroke-dasharray:none;stroke-opacity:1"
       d="m -456.49633,218.95729 12.82893,-4.27631 7.48352,25.65788 h -19.24338 z"
       id="path1189"
       inkscape:connector-curvature="0" />
    <path
       style="fill:none;stroke:#ff6060;stroke-width:2;stroke-linecap:round;stroke-linejoin:miter;stroke-miterlimit:4;stroke-dasharray:none;stroke-opacity:1"
       d="m -487.40924,175.46343 -1.41741,5.85864"
       id="path1191"
       inkscape:connector-curvature="0"
       sodipodi:nodetypes="cc" />
    <path
       style="fill:none;stroke:#000000;stroke-width:0.26458332px;stroke-linecap:butt;stroke-linejoin:miter;stroke-opacity:1"
       d="M -454.14734,186.04677 Z"
       id="path1193"
       inkscape:connector-curvature="0" />
    <path
       style="fill:none;stroke:#ff6060;stroke-width:2;stroke-linecap:round;stroke-linejoin:miter;stroke-miterlimit:4;stroke-dasharray:none;stroke-opacity:1"
       d="m -453.58037,180.8496 0.0945,4.7247"
       id="path1195"
       inkscape:connector-curvature="0"
       sodipodi:nodetypes="cc" />
    <rect
       style="opacity:1;vector-effect:none;fill:#ff6060;fill-opacity:1;fill-rule:nonzero;stroke:#ff6060;stroke-width:2.07846642;stroke-linecap:round;stroke-linejoin:round;stroke-miterlimit:4;stroke-dasharray:none;stroke-dashoffset:0;stroke-opacity:1;paint-order:stroke markers fill"
       id="rect1197"
       width="24.40555"
       height="5.3123593"
       x="-425.91144"
       y="88.134811"
       transform="matrix(0.9943746,-0.10592047,0.13566222,0.99075515,0,0)" />
  </g>
</svg>
